<?xml version="1.0" encoding="UTF-8" standalone="no"?>
<svg
   width="16"
   height="16"
   version="1.1"
   viewBox="0 0 16 16"
   id="svg7"
   sodipodi:docname="desktop.svg"
   inkscape:version="1.1.1 (3bf5ae0d25, 2021-09-20, custom)"
   xmlns:inkscape="http://www.inkscape.org/namespaces/inkscape"
   xmlns:sodipodi="http://sodipodi.sourceforge.net/DTD/sodipodi-0.dtd"
   xmlns:xlink="http://www.w3.org/1999/xlink"
   xmlns="http://www.w3.org/2000/svg"
   xmlns:svg="http://www.w3.org/2000/svg">
  <sodipodi:namedview
     id="namedview9"
     pagecolor="#ffffff"
     bordercolor="#999999"
     borderopacity="1"
     inkscape:pageshadow="0"
     inkscape:pageopacity="0"
     inkscape:pagecheckerboard="0"
     showgrid="false"
     inkscape:zoom="11.703125"
     inkscape:cx="10.638184"
     inkscape:cy="-7.64753"
     inkscape:window-width="1920"
     inkscape:window-height="936"
     inkscape:window-x="0"
     inkscape:window-y="40"
     inkscape:window-maximized="1"
     inkscape:current-layer="svg7" />
  <defs
     id="defs3">
    <linearGradient
       inkscape:collect="always"
       id="linearGradient958">
      <stop
         style="stop-color:#08ddce;stop-opacity:1"
         offset="0"
         id="stop954" />
      <stop
         style="stop-color:#29a7f1;stop-opacity:1"
         offset="1"
         id="stop956" />
    </linearGradient>
    <style
       id="current-color-scheme"
       type="text/css">.ColorScheme-Text { color:#dedede; }</style>
    <linearGradient
       id="linearGradient13727"
       x1="22.225"
       x2="34.395"
       y1="12.435"
       y2="12.435"
       gradientUnits="userSpaceOnUse">
      <stop
         stop-color="#07decd"
         offset="0"
         id="stop9" />
      <stop
         stop-color="#2aa6f2"
         offset="1"
         id="stop11" />
    </linearGradient>
    <linearGradient
       id="linearGradient5683"
       x1="22.225"
       x2="34.395"
       y1="5.1592999"
       y2="5.1592999"
       gradientUnits="userSpaceOnUse">
      <stop
         stop-color="#3ba2e5"
         offset="0"
         id="stop4" />
      <stop
         stop-color="#03decd"
         offset="1"
         id="stop6" />
    </linearGradient>
    <linearGradient
       id="linearGradient65902"
       x1="31.007999"
       x2="32.847"
       y1="7.6949"
       y2="9.5346003"
       gradientUnits="userSpaceOnUse">
      <stop
         stop-color="#2273ba"
         offset="0"
         id="stop19" />
      <stop
         stop-color="#26acee"
         offset="1"
         id="stop21" />
    </linearGradient>
    <linearGradient
       id="linearGradient22356"
       x1="23.811001"
       x2="25.664"
       y1="9.5258999"
       y2="7.6728001"
       gradientUnits="userSpaceOnUse">
      <stop
         stop-color="#0bd8d1"
         offset="0"
         id="stop14" />
      <stop
         stop-color="#0aa8a7"
         offset="1"
         id="stop16" />
    </linearGradient>
    <linearGradient
       inkscape:collect="always"
       xlink:href="#linearGradient958"
       id="linearGradient960"
       x1="2.5e-07"
       y1="7.5"
       x2="16"
       y2="7.5"
       gradientUnits="userSpaceOnUse" />
  </defs>
  <path
     d="m -17.780539,1 c -1.108,0 -2,0.892 -2,2 v 9 c 0,1.108 0.892,2 2,2 h 11.9999996 c 1.108,0 2,-0.892 2,-2 V 3 c 0,-1.108 -0.892,-2 -2,-2 z m 0,1 h 11.9999996 c 0.554,0 1,0.446 1,1 H -18.780539 c 0,-0.554 0.446,-1 1,-1 z m -1,2 h 13.9999996 v 8 c 0,0.554 -0.446,1 -1,1 H -17.780539 c -0.554,0 -1,-0.446 -1,-1 z m 3,6 c -0.554,0 -1,0.446 -1,1 0,0.554 0.446,1 1,1 h 7.9999996 c 0.554,0 1,-0.446 1,-1 0,-0.554 -0.446,-1 -1,-1 z"
     style="fill:currentColor"
     class="ColorScheme-Text"
     id="path5" />
  <path
     d="M 2.0000002,1 C 0.89200025,1 2.5e-7,1.892 2.5e-7,3 v 9 c 0,1.108 0.892,2 1.99999995,2 H 14 c 1.108,0 2,-0.892 2,-2 V 3 C 16,1.892 15.108,1 14,1 Z m 0,1 H 14 c 0.554,0 1,0.446 1,1 H 1.0000002 c 0,-0.554 0.446,-1 1,-1 z m -1,2 H 15 v 8 c 0,0.554 -0.446,1 -1,1 H 2.0000002 c -0.554,0 -1,-0.446 -1,-1 z m 3,6 c -0.5539999,0 -1,0.446 -1,1 0,0.554 0.4460001,1 1,1 H 12 c 0.554,0 1,-0.446 1,-1 0,-0.554 -0.446,-1 -1,-1 z"
     style="fill:url(#linearGradient960);fill-opacity:1"
     class="ColorScheme-Text"
     id="path908" />
</svg>
