<?xml version="1.0" encoding="UTF-8" standalone="no"?>
<svg
   width="16"
   height="16"
   version="1.1"
   viewBox="0 0 16 16"
   id="svg7"
   sodipodi:docname="folder-html.svg"
   inkscape:version="1.1.1 (3bf5ae0d25, 2021-09-20, custom)"
   xmlns:inkscape="http://www.inkscape.org/namespaces/inkscape"
   xmlns:sodipodi="http://sodipodi.sourceforge.net/DTD/sodipodi-0.dtd"
   xmlns:xlink="http://www.w3.org/1999/xlink"
   xmlns="http://www.w3.org/2000/svg"
   xmlns:svg="http://www.w3.org/2000/svg">
  <sodipodi:namedview
     id="namedview9"
     pagecolor="#ffffff"
     bordercolor="#999999"
     borderopacity="1"
     inkscape:pageshadow="0"
     inkscape:pageopacity="0"
     inkscape:pagecheckerboard="0"
     showgrid="false"
     inkscape:zoom="8.2753591"
     inkscape:cx="9.0026305"
     inkscape:cy="-6.4649763"
     inkscape:window-width="1920"
     inkscape:window-height="936"
     inkscape:window-x="0"
     inkscape:window-y="40"
     inkscape:window-maximized="1"
     inkscape:current-layer="svg7" />
  <defs
     id="defs3">
    <linearGradient
       inkscape:collect="always"
       id="linearGradient849">
      <stop
         style="stop-color:#64f5fb;stop-opacity:1"
         offset="0"
         id="stop845" />
      <stop
         style="stop-color:#3f87f4;stop-opacity:1"
         offset="1"
         id="stop847" />
    </linearGradient>
    <style
       id="current-color-scheme"
       type="text/css">.ColorScheme-Text { color:#dedede; }</style>
    <linearGradient
       id="linearGradient1974"
       x1="48.404999"
       x2="19.846001"
       y1="52.938"
       y2="13.159"
       gradientUnits="userSpaceOnUse"
       gradientTransform="translate(0.73322824,-61.37774)">
      <stop
         stop-color="#2449f0"
         offset="0"
         id="stop4" />
      <stop
         stop-color="#69e9fa"
         offset="1"
         id="stop6" />
    </linearGradient>
    <linearGradient
       inkscape:collect="always"
       xlink:href="#linearGradient849"
       id="linearGradient851"
       x1="1.675e-05"
       y1="8.0000385"
       x2="15.999927"
       y2="8.0000385"
       gradientUnits="userSpaceOnUse" />
  </defs>
  <path
     d="m -11.657247,0 a 8,8 0 0 0 -0.15234,0.0058594 l -0.002,0.0019531 a 8,8 0 0 0 -0.03516,0.0019531 8.1695,8.1695 0 0 0 -0.0293,-0.0019531 8,8 0 0 0 -0.09766,0.0078125 8,8 0 0 0 -0.67383,0.052734 8,8 0 0 0 -0.10156,0.015625 8,8 0 0 0 -0.66406,0.11914 8,8 0 0 0 -0.1582,0.039062 8,8 0 0 0 -0.63477,0.18359 8,8 0 0 0 -0.07617,0.027344 8,8 0 0 0 -0.68555,0.27148 8,8 0 0 0 -0.01563,0.007813 8,8 0 0 0 -0.68945,0.35547 8,8 0 0 0 -0.0332,0.021484 8,8 0 0 0 -0.64258,0.41992 8,8 0 0 0 -0.01367,0.00977 8,8 0 0 0 -0.5918,0.47656 8,8 0 0 0 -0.07227,0.066406 8,8 0 0 0 -0.5,0.49219 8,8 0 0 0 -0.0625,0.070312 8,8 0 0 0 -0.45898,0.55469 8,8 0 0 0 -0.02539,0.037109 8,8 0 0 0 -0.41211,0.60938 8,8 0 0 0 -0.06055,0.10352 8,8 0 0 0 -0.31445,0.58594 8,8 0 0 0 -0.0625,0.13867 8,8 0 0 0 -0.25586,0.62305 8,8 0 0 0 -0.02344,0.068359 8,8 0 0 0 -0.20312,0.66992 8,8 0 0 0 -0.06445,0.26758 c 0.0013,5.628e-4 0.0026,0.00139 0.0039,0.00195 a 8,8 0 0 0 -0.01758,0.083984 8,8 0 0 0 -0.09375,0.55273 8,8 0 0 0 -0.0332,0.27148 8,8 0 0 0 -0.04102,0.61719 8,8 0 0 0 -0.0059,0.16992 8,8 0 0 0 4.5859,7.2245998 8,8 0 0 0 0.01172,0.0059 8,8 0 0 0 0.38867,0.17383 v 0.002 a 8,8 0 0 0 0.0098,0.0039 8,8 0 0 0 0.61719,0.2168 8,8 0 0 0 0.1543,0.05078 8,8 0 0 0 0.53906,0.13086 8,8 0 0 0 0.25781,0.05664 8,8 0 0 0 0.51367,0.07227 8,8 0 0 0 0.27734,0.0332 8,8 0 0 0 0.64453,0.0293 8,8 0 0 0 0.66211,-0.03125 v -0.002 a 8,8 0 0 0 0.01367,0 8,8 0 0 0 0.73633,-0.09961 8,8 0 0 0 0.05664,-0.0078 8,8 0 0 0 0.01172,-0.002 8,8 0 0 0 0.7656305,-0.18555 8,8 0 0 0 3.6543,-2.2832 8,8 0 0 0 0.019531,-0.02148 8,8 0 0 0 0.19922,-0.21289 8,8 0 0 0 0.00195,-0.0039 c -0.0052,0.0019 -0.01045,0.0039 -0.015625,0.0059 a 8,8 0 0 0 1.8945,-5.1561998 8,8 0 0 0 -0.26172,-1.9902 c 0.0013,-4.06e-5 0.00261,4e-5 0.00391,0 a 8,8 0 0 0 -0.021485,-0.064453 8,8 0 0 0 -0.00391,-0.013672 8,8 0 0 0 -0.19336,-0.62109 8,8 0 0 0 -0.042969,-0.11914 8,8 0 0 0 -1.1016,-2.0059 8,8 0 0 0 -0.029297,-0.037109 8,8 0 0 0 -0.023437,-0.029297 8,8 0 0 0 -1.0352,-1.1074 8,8 0 0 0 -0.046875,-0.039063 8,8 0 0 0 -0.00977,-0.00977 8,8 0 0 0 -0.56445,-0.44727 8,8 0 0 0 -0.070313,-0.050781 8,8 0 0 0 -0.57617,-0.36719 8,8 0 0 0 -0.089844,-0.052734 8,8 0 0 0 -3.9336005,-1.0449 z m 0,1 a 7,7 0 0 1 0.02344,0.00195 c -0.0049,0.12253 -0.02344,0.24142 -0.02344,0.36523 0,0.9854 0.12584,1.9405 0.33984,2.8613 -1.1091,0.93745 -2.4934,1.5589 -4.0176,1.7246 0.4294,-1.8215 1.2905,-3.4696 2.4629,-4.8457 a 7,7 0 0 1 0.49414,-0.0625 7,7 0 0 1 0.21289,-0.025391 7,7 0 0 1 0.50781,-0.019531 z m 1.0176,0.082031 a 7,7 0 0 1 0.01563,0.00391 7,7 0 0 1 0.6679701,0.13281 7,7 0 0 1 0.00195,0 7,7 0 0 1 0.00195,0 7,7 0 0 1 0.66797,0.20508 7,7 0 0 1 0.023437,0.00781 c -0.30467,0.7143 -0.71025,1.3749 -1.2090003,1.9551 -0.11504,-0.6572 -0.1875,-1.3291 -0.1875,-2.0195 0,-0.09654 0.01488,-0.18928 0.01758,-0.28516 z m -3.8613,0.53125 c -0.88323,1.306 -1.5326,2.7808 -1.873,4.375 -0.6532,-0.01864 -1.2809,-0.12781 -1.8809,-0.30273 a 7,7 0 0 1 0.25781,-0.63281 7,7 0 0 1 0.01953,-0.041016 7,7 0 0 1 0.31055,-0.58594 7,7 0 0 1 0.0098,-0.015625 7,7 0 0 1 0.38281,-0.57227 7,7 0 0 1 0.44141,-0.53711 7,7 0 0 1 0.0078,-0.00977 7,7 0 0 1 0.48242,-0.48047 7,7 0 0 1 0.02344,-0.019531 7,7 0 0 1 0.51562,-0.41992 7,7 0 0 1 0.03125,-0.021484 7,7 0 0 1 0.55859,-0.36914 7,7 0 0 1 0.01563,-0.00781 7,7 0 0 1 0.61133,-0.32031 7,7 0 0 1 0.08594,-0.039063 z m 6.1484001,0.21875 a 7,7 0 0 1 0.00586,0.00391 7,7 0 0 1 0.59375,0.35742 7,7 0 0 1 0.5,0.37305 7,7 0 0 1 0.060547,0.044922 7,7 0 0 1 0.00586,0.00586 7,7 0 0 1 0.45117,0.41211 7,7 0 0 1 0.058594,0.054688 7,7 0 0 1 0.00391,0.00586 7,7 0 0 1 0.33594,0.37305 7,7 0 0 1 0.13867,0.16016 7,7 0 0 1 0.25977,0.35352 7,7 0 0 1 0.15039,0.21289 7,7 0 0 1 0.29297,0.50195 7,7 0 0 1 0.048829,0.083984 7,7 0 0 1 0.00195,0.00586 7,7 0 0 1 0.23828,0.51758 7,7 0 0 1 0.050781,0.11328 7,7 0 0 1 0.00391,0.011719 7,7 0 0 1 0.15625,0.45703 7,7 0 0 1 0.076172,0.22656 c -1.4278,0.2149 -2.7415,0.77943 -3.8457,1.6133 -0.63033,-0.9649 -1.1166,-2.0286 -1.4395001,-3.1641 0.7851001,-0.7717 1.4127001,-1.6983 1.8516001,-2.7246 z m -2.6816001,3.4355 c 0.3607,1.109 0.86629,2.1525 1.5020001,3.1035 -1.2292001,1.1787 -2.1088001,2.7182 -2.4570001,4.4512 -1.1424,-0.19436 -2.2259,-0.5536 -3.2285,-1.0547 -0.27868,-0.9986 -0.43945,-2.0466 -0.43945,-3.1348 0,-0.5675 0.0545,-1.1203 0.13281,-1.666 1.6799,-0.1247 3.2223,-0.73726 4.4902,-1.6992 z m -7.4883,1.3672 c 0.6353,0.1889 1.2968,0.31508 1.9863,0.3457 -0.07114,0.542 -0.12109,1.0911 -0.12109,1.6523 0,0.8395 0.08752,1.6592 0.24414,2.4531 -0.7856,-0.5172 -1.4925,-1.1383 -2.127,-1.8262 a 7,7 0 0 1 0,-0.00195 7,7 0 0 1 -0.06836,-0.50195 7,7 0 0 1 -0.02734,-0.22266 7,7 0 0 1 -0.02148,-0.5332 7,7 0 0 1 0.03516,-0.69922 7,7 0 0 1 0.09961,-0.66602 z m 13.7970001,0.45117 a 7,7 0 0 1 0.058593,0.66406 7,7 0 0 1 0.00977,0.25 7,7 0 0 1 -0.70703,3.043 7,7 0 0 1 -0.023438,0.05273 c -1.0662,-0.7006 -2.0125,-1.566 -2.7969,-2.5684 0.9896,-0.7507 2.1713,-1.2568 3.459,-1.4414 z m -4.2129,2.0898 c 0.8577,1.087 1.8961,2.0176 3.0605,2.7734 a 7,7 0 0 1 -0.00195,0.0039 7,7 0 0 1 -0.2832,0.37109 c -1.2096,0.42703 -2.5046,0.67578 -3.8613001,0.67578 -0.32798,0 -0.64964,-0.02229 -0.9707,-0.04883 0.3059,-1.4617 1.0363001,-2.7633 2.0566001,-3.7754 z m -8.8984001,2.1016 c 0.5552,0.44425 1.1479,0.84413 1.7773,1.1875 0.1492,0.46809 0.32934,0.92167 0.53125,1.3633 a 7,7 0 0 1 -0.0059,-0.0039 7,7 0 0 1 -0.5293,-0.39258 7,7 0 0 1 -0.03125,-0.02344 7,7 0 0 1 -0.51367,-0.4668 7,7 0 0 1 -0.46875,-0.51953 7,7 0 0 1 -0.41406,-0.5625 7,7 0 0 1 -0.3457,-0.58203 z m 3.0566,1.7871 c 0.8443,0.34419 1.7346,0.59108 2.6582,0.74609 -0.01846,0.22827 -0.03516,0.45649 -0.03516,0.68945 0,0.16094 0.01218,0.3181 0.02148,0.47656 a 7,7 0 0 1 -0.0098,-0.002 7,7 0 0 1 -1.8516,-0.38672 7,7 0 0 1 -0.0078,-0.002 c -0.29525,-0.484 -0.55676,-0.99058 -0.77539,-1.5215 z m 7.0605001,0.71484 a 7,7 0 0 1 -0.00391,0.0039 7,7 0 0 1 -0.58203,0.35352 7,7 0 0 1 -0.011718,0.0078 7,7 0 0 1 -0.00586,0.002 7,7 0 0 1 -0.5332,0.25977 7,7 0 0 1 -0.13086,0.05664 7,7 0 0 1 -0.51367,0.1875 7,7 0 0 1 -0.14453,0.04687 7,7 0 0 1 -0.4824201,0.125 7,7 0 0 1 -0.2168,0.04883 7,7 0 0 1 -0.44922,0.06641 7,7 0 0 1 -0.33398,0.04102 c -0.01257,-0.15893 -0.0293,-0.3161 -0.0293,-0.47852 0,-0.18734 0.01391,-0.37084 0.02734,-0.55469 0.36492,0.03177 0.73241,0.05469 1.1055,0.05469 0.7889001,0 1.5586001,-0.07698 2.3047001,-0.2207 z"
     style="fill:currentColor"
     class="ColorScheme-Text"
     id="path5" />
  <path
     d="m 8.0001167,0 a 8,8 0 0 0 -0.15234,0.0058594 l -0.002,0.0019531 a 8,8 0 0 0 -0.03516,0.0019531 8.1695,8.1695 0 0 0 -0.0293,-0.0019531 8,8 0 0 0 -0.09766,0.0078125 8,8 0 0 0 -0.67383,0.052734 8,8 0 0 0 -0.10156,0.015625 8,8 0 0 0 -0.66406,0.11914 8,8 0 0 0 -0.1582,0.039062 8,8 0 0 0 -0.63477,0.18359 8,8 0 0 0 -0.07617,0.027344 8,8 0 0 0 -0.68555,0.27148 8,8 0 0 0 -0.01563,0.007813 8,8 0 0 0 -0.68945,0.35547 8,8 0 0 0 -0.0332,0.021484 8,8 0 0 0 -0.64258,0.41992 8,8 0 0 0 -0.01367,0.00977 8,8 0 0 0 -0.5918,0.47656 8,8 0 0 0 -0.07227,0.066406 8,8 0 0 0 -0.5,0.49219 8,8 0 0 0 -0.0625,0.070312 8,8 0 0 0 -0.45898,0.55469 8,8 0 0 0 -0.02539,0.037109 8,8 0 0 0 -0.41211,0.60938 8,8 0 0 0 -0.06055,0.10352 8,8 0 0 0 -0.31444995,0.58594 8,8 0 0 0 -0.0625,0.13867 8,8 0 0 0 -0.25586,0.62305 8,8 0 0 0 -0.02344,0.068359 8,8 0 0 0 -0.20312,0.66992 8,8 0 0 0 -0.06445,0.26758 c 0.0013,5.628e-4 0.0026,0.00139 0.0039,0.00195 a 8,8 0 0 0 -0.01758,0.083984 8,8 0 0 0 -0.09375,0.55273 8,8 0 0 0 -0.0332,0.27148 8,8 0 0 0 -0.04102,0.61719 8,8 0 0 0 -0.0059,0.16992 8,8 0 0 0 4.58589995,7.2246 8,8 0 0 0 0.01172,0.0059 8,8 0 0 0 0.38867,0.17383 v 0.002 a 8,8 0 0 0 0.0098,0.0039 8,8 0 0 0 0.61719,0.2168 8,8 0 0 0 0.1543,0.05078 8,8 0 0 0 0.53906,0.13086 8,8 0 0 0 0.25781,0.05664 8,8 0 0 0 0.51367,0.07227 8,8 0 0 0 0.27734,0.0332 8,8 0 0 0 0.64453,0.0293 8,8 0 0 0 0.66211,-0.03125 v -0.002 a 8,8 0 0 0 0.01367,0 8,8 0 0 0 0.73633,-0.09961 8,8 0 0 0 0.05664,-0.0078 8,8 0 0 0 0.01172,-0.002 8,8 0 0 0 0.7656303,-0.18555 8,8 0 0 0 3.6543,-2.2832 8,8 0 0 0 0.01953,-0.02148 8,8 0 0 0 0.19922,-0.21289 8,8 0 0 0 0.0019,-0.0039 c -0.0052,0.0019 -0.01045,0.0039 -0.01563,0.0059 a 8,8 0 0 0 1.8945,-5.1562 8,8 0 0 0 -0.26172,-1.9902 c 0.0013,-4.06e-5 0.0026,4e-5 0.0039,0 a 8,8 0 0 0 -0.02148,-0.064453 8,8 0 0 0 -0.0039,-0.013672 8,8 0 0 0 -0.19336,-0.62109 8,8 0 0 0 -0.04297,-0.11914 8,8 0 0 0 -1.1016,-2.0059 8,8 0 0 0 -0.0293,-0.037109 8,8 0 0 0 -0.02344,-0.029297 8,8 0 0 0 -1.0352,-1.1074 8,8 0 0 0 -0.04687,-0.039063 8,8 0 0 0 -0.0098,-0.00977 8,8 0 0 0 -0.56445,-0.44727 8,8 0 0 0 -0.07031,-0.050781 8,8 0 0 0 -0.57617,-0.36719 8,8 0 0 0 -0.08984,-0.052734 8,8 0 0 0 -3.9336003,-1.0449 z m 0,1 a 7,7 0 0 1 0.02344,0.00195 c -0.0049,0.12253 -0.02344,0.24142 -0.02344,0.36523 0,0.9854 0.12584,1.9405 0.33984,2.8613 -1.1091,0.93745 -2.4934,1.5589 -4.0176,1.7246 0.4294,-1.8215 1.2905,-3.4696 2.4629,-4.8457 a 7,7 0 0 1 0.49414,-0.0625 7,7 0 0 1 0.21289,-0.025391 7,7 0 0 1 0.50781,-0.019531 z m 1.0176,0.082031 a 7,7 0 0 1 0.01563,0.00391 7,7 0 0 1 0.6679701,0.13281 7,7 0 0 1 0.00195,0 7,7 0 0 1 0.00195,0 7,7 0 0 1 0.6679702,0.20508 7,7 0 0 1 0.02344,0.00781 c -0.30467,0.7143 -0.7102502,1.3749 -1.2090005,1.9551 -0.11504,-0.6572 -0.1875,-1.3291 -0.1875,-2.0195 0,-0.09654 0.01488,-0.18928 0.01758,-0.28516 z m -3.8613,0.53125 c -0.88323,1.306 -1.5326,2.7808 -1.873,4.375 -0.6532,-0.01864 -1.2809,-0.12781 -1.8809,-0.30273 a 7,7 0 0 1 0.25781,-0.63281 7,7 0 0 1 0.01953,-0.041016 7,7 0 0 1 0.31055,-0.58594 7,7 0 0 1 0.0098,-0.015625 7,7 0 0 1 0.38281,-0.57227 7,7 0 0 1 0.44141,-0.53711 7,7 0 0 1 0.0078,-0.00977 7,7 0 0 1 0.48242,-0.48047 7,7 0 0 1 0.02344,-0.019531 7,7 0 0 1 0.51562,-0.41992 7,7 0 0 1 0.03125,-0.021484 7,7 0 0 1 0.55859,-0.36914 7,7 0 0 1 0.01563,-0.00781 7,7 0 0 1 0.61133,-0.32031 7,7 0 0 1 0.08594,-0.039063 z m 6.1484003,0.21875 a 7,7 0 0 1 0.0059,0.00391 7,7 0 0 1 0.59375,0.35742 7,7 0 0 1 0.5,0.37305 7,7 0 0 1 0.06055,0.044922 7,7 0 0 1 0.0059,0.00586 7,7 0 0 1 0.45117,0.41211 7,7 0 0 1 0.05859,0.054688 7,7 0 0 1 0.0039,0.00586 7,7 0 0 1 0.33594,0.37305 7,7 0 0 1 0.13867,0.16016 7,7 0 0 1 0.25977,0.35352 7,7 0 0 1 0.15039,0.21289 7,7 0 0 1 0.29297,0.50195 7,7 0 0 1 0.04883,0.083984 7,7 0 0 1 0.002,0.00586 7,7 0 0 1 0.23828,0.51758 7,7 0 0 1 0.05078,0.11328 7,7 0 0 1 0.0039,0.011719 7,7 0 0 1 0.15625,0.45703 7,7 0 0 1 0.07617,0.22656 c -1.4278,0.2149 -2.7415,0.77943 -3.8457,1.6133 -0.63033,-0.9649 -1.1166002,-2.0286 -1.4395003,-3.1641 0.7851003,-0.7717 1.4127003,-1.6983 1.8516003,-2.7246 z m -2.6816003,3.4355 c 0.3607,1.109 0.86629,2.1525 1.5020003,3.1035 -1.2292003,1.1787 -2.1088003,2.7182 -2.4570003,4.4512 -1.1424,-0.19436 -2.2259,-0.5536 -3.2285,-1.0547 -0.27868,-0.9986 -0.43945,-2.0466 -0.43945,-3.1348 0,-0.5675 0.0545,-1.1203 0.13281,-1.666 1.6799,-0.1247 3.2223,-0.73726 4.4902,-1.6992 z m -7.4883,1.3672 c 0.6353,0.1889 1.2968,0.31508 1.9863,0.3457 -0.07114,0.542 -0.12109,1.0911 -0.12109,1.6523 0,0.8395 0.08752,1.6592 0.24414,2.4531 -0.7856,-0.5172 -1.4925,-1.1383 -2.127,-1.8262 a 7,7 0 0 1 0,-0.00195 7,7 0 0 1 -0.06836,-0.50195 7,7 0 0 1 -0.02734,-0.22266 7,7 0 0 1 -0.02148,-0.5332 7,7 0 0 1 0.03516,-0.69922 7,7 0 0 1 0.09961,-0.66602 z m 13.7970003,0.45117 a 7,7 0 0 1 0.05859,0.66406 7,7 0 0 1 0.0098,0.25 7,7 0 0 1 -0.70703,3.043 7,7 0 0 1 -0.02344,0.05273 c -1.0662,-0.7006 -2.0125,-1.566 -2.7969,-2.5684 0.9896,-0.7507 2.1713,-1.2568 3.459,-1.4414 z m -4.2129,2.0898 c 0.8577,1.087 1.8961,2.0176 3.0605,2.7734 a 7,7 0 0 1 -0.002,0.0039 7,7 0 0 1 -0.2832,0.37109 c -1.2096,0.42703 -2.5046,0.67578 -3.8613003,0.67578 -0.32798,0 -0.64964,-0.02229 -0.9707,-0.04883 0.3059,-1.4617 1.0363001,-2.7633 2.0566003,-3.7754 z m -8.8984003,2.1016 c 0.5552,0.44425 1.1479,0.84413 1.7773,1.1875 0.1492,0.46809 0.32934,0.92167 0.53125,1.3633 a 7,7 0 0 1 -0.0059,-0.0039 7,7 0 0 1 -0.5293,-0.39258 7,7 0 0 1 -0.03125,-0.02344 7,7 0 0 1 -0.51367,-0.4668 7,7 0 0 1 -0.46875,-0.51953 7,7 0 0 1 -0.41406,-0.5625 7,7 0 0 1 -0.3457,-0.58203 z m 3.0566,1.7871 c 0.8443,0.34419 1.7346,0.59108 2.6582,0.74609 -0.01846,0.22827 -0.03516,0.45649 -0.03516,0.68945 0,0.16094 0.01218,0.3181 0.02148,0.47656 a 7,7 0 0 1 -0.0098,-0.002 7,7 0 0 1 -1.8516,-0.38672 7,7 0 0 1 -0.0078,-0.002 c -0.29525,-0.484 -0.55676,-0.99058 -0.77539,-1.5215 z m 7.0605003,0.71484 a 7,7 0 0 1 -0.0039,0.0039 7,7 0 0 1 -0.58203,0.35352 7,7 0 0 1 -0.01172,0.0078 7,7 0 0 1 -0.0059,0.002 7,7 0 0 1 -0.5332,0.25977 7,7 0 0 1 -0.13086,0.05664 7,7 0 0 1 -0.51367,0.1875 7,7 0 0 1 -0.14453,0.04687 7,7 0 0 1 -0.4824203,0.125 7,7 0 0 1 -0.2168,0.04883 7,7 0 0 1 -0.44922,0.06641 7,7 0 0 1 -0.33398,0.04102 c -0.01257,-0.15893 -0.0293,-0.3161 -0.0293,-0.47852 0,-0.18734 0.01391,-0.37084 0.02734,-0.55469 0.36492,0.03177 0.73241,0.05469 1.1055,0.05469 0.7889003,0 1.5586003,-0.07698 2.3047003,-0.2207 z"
     style="fill:url(#linearGradient851);fill-opacity:1"
     class="ColorScheme-Text"
     id="path843" />
</svg>
