<?xml version="1.0" encoding="UTF-8" standalone="no"?>
<svg
   width="16"
   height="16"
   version="1.1"
   viewBox="0 0 16 16"
   id="svg7"
   sodipodi:docname="folder-music.svg"
   inkscape:version="1.1.1 (3bf5ae0d25, 2021-09-20, custom)"
   xmlns:inkscape="http://www.inkscape.org/namespaces/inkscape"
   xmlns:sodipodi="http://sodipodi.sourceforge.net/DTD/sodipodi-0.dtd"
   xmlns:xlink="http://www.w3.org/1999/xlink"
   xmlns="http://www.w3.org/2000/svg"
   xmlns:svg="http://www.w3.org/2000/svg">
  <sodipodi:namedview
     id="namedview9"
     pagecolor="#ffffff"
     bordercolor="#999999"
     borderopacity="1"
     inkscape:pageshadow="0"
     inkscape:pageopacity="0"
     inkscape:pagecheckerboard="0"
     showgrid="false"
     inkscape:zoom="23.40625"
     inkscape:cx="5.8317757"
     inkscape:cy="5.0200267"
     inkscape:window-width="1920"
     inkscape:window-height="936"
     inkscape:window-x="0"
     inkscape:window-y="40"
     inkscape:window-maximized="1"
     inkscape:current-layer="svg7" />
  <defs
     id="defs3">
    <linearGradient
       inkscape:collect="always"
       id="linearGradient832">
      <stop
         style="stop-color:#56e092;stop-opacity:1"
         offset="0"
         id="stop828" />
      <stop
         style="stop-color:#4c70ed;stop-opacity:1"
         offset="1"
         id="stop830" />
    </linearGradient>
    <style
       id="current-color-scheme"
       type="text/css">.ColorScheme-Text { color:#dedede; }</style>
    <linearGradient
       inkscape:collect="always"
       xlink:href="#linearGradient832"
       id="linearGradient834"
       x1="8.6039696"
       y1="7.5468354"
       x2="13.776763"
       y2="12.719628"
       gradientUnits="userSpaceOnUse" />
    <radialGradient
       id="radialGradient880"
       cx="18.610001"
       cy="17.961"
       r="29.999001"
       gradientTransform="matrix(1.7606,0,0,1.5621,-12.973519,-76.908157)"
       gradientUnits="userSpaceOnUse">
      <stop
         stop-color="#e2fea4"
         offset="0"
         id="stop4" />
      <stop
         stop-color="#14d289"
         offset=".50075"
         id="stop6" />
      <stop
         stop-color="#4d6eef"
         offset=".95008"
         id="stop8" />
      <stop
         stop-color="#ca8db3"
         offset="1"
         id="stop10" />
    </radialGradient>
    <linearGradient
       id="linearGradient48298"
       x1="33.216"
       x2="32.923"
       y1="20.622"
       y2="24.273001"
       gradientTransform="translate(0.0012,-8.1e-5)"
       gradientUnits="userSpaceOnUse">
      <stop
         stop-color="#c5fbb1"
         offset="0"
         id="stop18" />
      <stop
         stop-color="#fbeced"
         offset="1"
         id="stop20" />
    </linearGradient>
    <linearGradient
       id="linearGradient59840"
       x1="32.313"
       x2="32.068001"
       y1="30.112"
       y2="32.778"
       gradientUnits="userSpaceOnUse">
      <stop
         stop-color="#c5fbb1"
         offset="0"
         id="stop23" />
      <stop
         stop-color="#f0efe1"
         offset="1"
         id="stop25" />
    </linearGradient>
    <linearGradient
       id="linearGradient32252"
       x1="31.472"
       x2="31.207001"
       y1="38.438"
       y2="40.995998"
       gradientUnits="userSpaceOnUse">
      <stop
         stop-color="#c5fbb1"
         offset="0"
         id="stop13" />
      <stop
         stop-color="#f6ede7"
         offset="1"
         id="stop15" />
    </linearGradient>
  </defs>
  <path
     d="M -5.8410523,-1.5321e-7 -13.218452,1.9052998 c -0.55422,0.14836 -1.0009,0.73837 -1.0009,1.3116 V 12.3061 c -0.562,-0.294 -1.2839,-0.41299 -2.0322,-0.21874 -1.3503,0.35052 -2.1966,1.4838 -1.9071,2.5303 0.28945,1.0465 1.6203,1.6309 2.9706,1.2804 1.0773,-0.27964 1.82,-1.071 1.9384,-1.9053 l 0.03128,-8.5892002 7.0020997,-1.8741 V 10.30706 c -0.562,-0.294 -1.2831,-0.4129902 -2.0314,-0.21874 -1.3503,0.35052 -2.1965997,1.4838 -1.9070997,2.5303 0.2894497,1.0465 1.6193997,1.6309 2.9696997,1.2804 1.0773,-0.27964 1.82,-1.071 1.9384,-1.9053 l 0.031279,-11.18100015 c 0,-0.42993 -0.26627,-0.752 -0.62557,-0.81248000321 z"
     style="fill:currentColor"
     class="ColorScheme-Text"
     id="path5" />
  <path
     d="M 13.874333,-1.5321e-7 6.4969331,1.9052998 c -0.55422,0.14836 -1.0009,0.73837 -1.0009,1.3116 V 12.3061 c -0.562,-0.294 -1.2839,-0.41299 -2.0322,-0.21874 -1.3503,0.35052 -2.1966,1.4838 -1.9071,2.5303 0.28945,1.0465 1.6203,1.6309 2.9706,1.2804 1.0773,-0.27964 1.82,-1.071 1.9384,-1.9053 l 0.03128,-8.5892002 7.0020999,-1.8741 V 10.30706 c -0.562,-0.294 -1.2831,-0.4129902 -2.0314,-0.21874 -1.3503,0.35052 -2.1965999,1.4838 -1.9070999,2.5303 0.2894497,1.0465 1.6193999,1.6309 2.9696999,1.2804 1.0773,-0.27964 1.82,-1.071 1.9384,-1.9053 l 0.03128,-11.18100015 c 0,-0.42993 -0.26627,-0.752 -0.62557,-0.81248000321 z"
     style="fill:url(#linearGradient834);fill-opacity:1"
     class="ColorScheme-Text"
     id="path826" />
</svg>
