<?xml version="1.0" encoding="UTF-8" standalone="no"?>
<svg
   width="16"
   height="16"
   version="1.1"
   id="svg7"
   sodipodi:docname="folder-txt.svg"
   inkscape:version="1.1.1 (3bf5ae0d25, 2021-09-20, custom)"
   xmlns:inkscape="http://www.inkscape.org/namespaces/inkscape"
   xmlns:sodipodi="http://sodipodi.sourceforge.net/DTD/sodipodi-0.dtd"
   xmlns:xlink="http://www.w3.org/1999/xlink"
   xmlns="http://www.w3.org/2000/svg"
   xmlns:svg="http://www.w3.org/2000/svg">
  <sodipodi:namedview
     id="namedview9"
     pagecolor="#ffffff"
     bordercolor="#999999"
     borderopacity="1"
     inkscape:pageshadow="0"
     inkscape:pageopacity="0"
     inkscape:pagecheckerboard="0"
     showgrid="false"
     inkscape:zoom="4.1376795"
     inkscape:cx="-15.588447"
     inkscape:cy="-13.413315"
     inkscape:window-width="1920"
     inkscape:window-height="936"
     inkscape:window-x="0"
     inkscape:window-y="40"
     inkscape:window-maximized="1"
     inkscape:current-layer="svg7" />
  <defs
     id="defs3">
    <linearGradient
       inkscape:collect="always"
       id="linearGradient870">
      <stop
         style="stop-color:#5795f2;stop-opacity:1"
         offset="0"
         id="stop866" />
      <stop
         style="stop-color:#87fbee;stop-opacity:1"
         offset="1"
         id="stop868" />
    </linearGradient>
    <style
       id="current-color-scheme"
       type="text/css">.ColorScheme-Text { color:#dedede; }</style>
    <linearGradient
       id="linearGradient1817"
       x1="182.60001"
       x2="182.60001"
       y1="-2.6484001"
       y2="95.015999"
       gradientTransform="matrix(0.59387,0,0,0.59387,-84.525472,-64.861043)"
       gradientUnits="userSpaceOnUse"
       xlink:href="#linearGradient51604" />
    <linearGradient
       id="linearGradient51604">
      <stop
         stop-color="#70aef9"
         offset="0"
         id="stop7" />
      <stop
         stop-color="#87fcee"
         offset="1"
         id="stop9" />
    </linearGradient>
    <linearGradient
       id="linearGradient38522"
       x1="173.21001"
       x2="196.07001"
       y1="8.9285002"
       y2="42.816002"
       gradientTransform="matrix(0.59387,0,0,0.59387,-84.525472,-64.861043)"
       gradientUnits="userSpaceOnUse"
       xlink:href="#linearGradient43550" />
    <linearGradient
       id="linearGradient43550">
      <stop
         stop-color="#5795f2"
         offset="0"
         id="stop12" />
      <stop
         stop-color="#87c5fe"
         stop-opacity="0"
         offset="1"
         id="stop14" />
    </linearGradient>
    <linearGradient
       id="linearGradient61286"
       x1="9.0261002"
       x2="31.853001"
       y1="15.023"
       y2="6.9875998"
       gradientUnits="userSpaceOnUse"
       xlink:href="#linearGradient61284"
       gradientTransform="translate(-8.0864717,-69.434143)" />
    <linearGradient
       id="linearGradient61284">
      <stop
         stop-color="#cfecfc"
         offset="0"
         id="stop2" />
      <stop
         stop-color="#96cefa"
         offset="1"
         id="stop4" />
    </linearGradient>
    <linearGradient
       inkscape:collect="always"
       xlink:href="#linearGradient870"
       id="linearGradient872"
       x1="9"
       y1="2.5329282"
       x2="9"
       y2="13.676234"
       gradientUnits="userSpaceOnUse" />
  </defs>
  <path
     d="m -12.302257,0 c -1.108,0 -2,0.892 -2,2 v 1 h -2 c -1.108,0 -2,0.892 -2,2 v 9 c 0,1.108 0.892,2 2,2 h 6 c 1.1079999,0 1.9999999,-0.892 1.9999999,-2 v -1 h 2 c 1.108,0 2,-0.892 2,-2 V 6.4141 5 l -5,-5 h -0.9999999 z m 0,1 h 2 v 4 1 h 4.9999999 v 5 c 0,0.554 -0.446,1 -1,1 h -2 V 9.4141 8 L -13.302257,3 V 2 c 0,-0.1385 0.02766,-0.27091 0.07813,-0.39062 C -13.072722,1.25022 -12.717752,1 -12.302252,1 Z m 2.9999999,0.41406 3.5859,3.5859 h -3.5859 z m -6.9999999,2.5859 h 2 v 4 1 h 4.9999999 v 5 c 0,0.554 -0.446,1 -0.9999999,1 h -6 c -0.554,0 -1,-0.446 -1,-1 v -9 c 0,-0.1385 0.02766,-0.27091 0.07813,-0.39062 0.15141,-0.35916 0.50638,-0.60938 0.92188,-0.60938 z m 3,0.41406 3.5858999,3.5859 h -3.5858999 z"
     style="fill:currentColor"
     class="ColorScheme-Text"
     id="path5" />
  <path
     d="m 7.0000001,0 c -1.1080001,0 -2,0.892 -2,2 v 1 h -2 c -1.1080001,0 -2,0.892 -2,2 v 9 c 0,1.108 0.8919999,2 2,2 h 6 C 10.108,16 11,15.108 11,14 v -1 h 2 c 1.108,0 2,-0.892 2,-2 V 6.4141 5 L 10,0 H 9.0000001 Z m 0,1 h 2 V 5 6 H 14 v 5 c 0,0.554 -0.446,1 -1,1 H 11 V 9.4141 8 L 6.0000001,3 V 2 c 0,-0.1385 0.02766,-0.27091 0.07813,-0.39062 C 6.2295351,1.25022 6.5845051,1 7.0000051,1 Z M 10,1.41406 13.5859,4.99996 H 10 Z m -6.9999999,2.5859 h 2 v 4 1 H 10 v 5 c 0,0.554 -0.446,1 -1,1 H 3 c -0.554,0 -1,-0.446 -1,-1 v -9 C 2,4.86146 2.02766,4.72905 2.07813,4.60934 2.22954,4.25018 2.58451,3.99996 3.0000101,3.99996 Z m 3,0.41406 L 9.5859,7.99992 H 6.0000001 Z"
     style="fill:url(#linearGradient872);fill-opacity:1"
     class="ColorScheme-Text"
     id="path864" />
</svg>
