<?xml version="1.0" encoding="UTF-8" standalone="no"?>
<svg
   width="16"
   height="16"
   version="1.1"
   id="svg7"
   sodipodi:docname="folder-home.svg"
   inkscape:version="1.1.1 (3bf5ae0d25, 2021-09-20, custom)"
   xmlns:inkscape="http://www.inkscape.org/namespaces/inkscape"
   xmlns:sodipodi="http://sodipodi.sourceforge.net/DTD/sodipodi-0.dtd"
   xmlns:xlink="http://www.w3.org/1999/xlink"
   xmlns="http://www.w3.org/2000/svg"
   xmlns:svg="http://www.w3.org/2000/svg">
  <sodipodi:namedview
     id="namedview9"
     pagecolor="#ffffff"
     bordercolor="#999999"
     borderopacity="1"
     inkscape:pageshadow="0"
     inkscape:pageopacity="0"
     inkscape:pagecheckerboard="0"
     showgrid="false"
     inkscape:zoom="11.703125"
     inkscape:cx="11.150868"
     inkscape:cy="-8.6728972"
     inkscape:window-width="1920"
     inkscape:window-height="936"
     inkscape:window-x="0"
     inkscape:window-y="40"
     inkscape:window-maximized="1"
     inkscape:current-layer="svg7" />
  <defs
     id="defs3">
    <linearGradient
       inkscape:collect="always"
       id="linearGradient1018">
      <stop
         style="stop-color:#96f534;stop-opacity:1"
         offset="0"
         id="stop1014" />
      <stop
         style="stop-color:#fde205;stop-opacity:1"
         offset="1"
         id="stop1016" />
    </linearGradient>
    <style
       id="current-color-scheme"
       type="text/css">.ColorScheme-Text { color:#dedede; }</style>
    <linearGradient
       id="linearGradient24503"
       x1="151.60001"
       x2="131.86"
       y1="31.521"
       y2="54.035999"
       gradientUnits="userSpaceOnUse"
       xlink:href="#linearGradient24501" />
    <linearGradient
       id="linearGradient24501">
      <stop
         stop-color="#12c9e5"
         offset="0"
         id="stop19" />
      <stop
         stop-color="#3696e3"
         offset=".073608"
         id="stop21" />
      <stop
         stop-color="#8822d6"
         offset="1"
         id="stop23" />
    </linearGradient>
    <linearGradient
       id="linearGradient12187"
       x1="145.33"
       x2="131.24001"
       y1="23.864"
       y2="40.154999"
       gradientUnits="userSpaceOnUse"
       xlink:href="#linearGradient12185" />
    <linearGradient
       id="linearGradient12185">
      <stop
         stop-color="#05fdf5"
         offset="0"
         id="stop26" />
      <stop
         stop-color="#22c2f8"
         offset=".16944"
         id="stop28" />
      <stop
         stop-color="#428afc"
         offset="1"
         id="stop30" />
    </linearGradient>
    <linearGradient
       id="linearGradient1876"
       x1="131.53"
       x2="135.92999"
       y1="13.6"
       y2="25.701"
       gradientUnits="userSpaceOnUse"
       xlink:href="#linearGradient1874" />
    <linearGradient
       id="linearGradient1874">
      <stop
         stop-color="#95fcfb"
         offset="0"
         id="stop33" />
      <stop
         stop-color="#09f5ca"
         offset="1"
         id="stop35" />
    </linearGradient>
    <linearGradient
       id="linearGradient62740"
       x1="29.771"
       x2="34.056"
       y1="14.458"
       y2="8.0227003"
       gradientTransform="translate(1.006e-4,0.083319)"
       gradientUnits="userSpaceOnUse"
       xlink:href="#linearGradient62782" />
    <linearGradient
       id="linearGradient62782">
      <stop
         stop-color="#fdf305"
         offset="0"
         id="stop14" />
      <stop
         stop-color="#febc1e"
         offset="1"
         id="stop16" />
    </linearGradient>
    <linearGradient
       id="linearGradient73102"
       x1="29.993999"
       x2="34.294998"
       y1="14.563"
       y2="11.17"
       gradientTransform="translate(1.006e-4,0.083319)"
       gradientUnits="userSpaceOnUse"
       xlink:href="#linearGradient73100" />
    <linearGradient
       id="linearGradient73100">
      <stop
         stop-color="#eed097"
         offset="0"
         id="stop7" />
      <stop
         stop-color="#f59e75"
         offset=".31001"
         id="stop9" />
      <stop
         stop-color="#fe5b4e"
         offset="1"
         id="stop11" />
    </linearGradient>
    <linearGradient
       id="linearGradient88292"
       x1="34.223"
       x2="33.577999"
       y1="14.526"
       y2="18.113001"
       gradientTransform="translate(1.006e-4,0.083319)"
       gradientUnits="userSpaceOnUse"
       xlink:href="#linearGradient88290" />
    <linearGradient
       id="linearGradient88290">
      <stop
         stop-color="#fc0360"
         offset="0"
         id="stop2" />
      <stop
         stop-color="#fb89b9"
         offset="1"
         id="stop4" />
    </linearGradient>
    <linearGradient
       inkscape:collect="always"
       xlink:href="#linearGradient1018"
       id="linearGradient1020"
       x1="8"
       y1="4.2460051"
       x2="8"
       y2="15.430047"
       gradientUnits="userSpaceOnUse" />
    <linearGradient
       id="linearGradient1870"
       x1="-236.39999"
       x2="-203.3"
       y1="23.104"
       y2="3.9972999"
       gradientUnits="userSpaceOnUse">
      <stop
         stop-color="#96f534"
         offset="0"
         id="stop2-3" />
      <stop
         stop-color="#01a1fd"
         stop-opacity="0"
         offset="1"
         id="stop4-6" />
    </linearGradient>
    <linearGradient
       id="linearGradient13611"
       x1="-229.78999"
       x2="-189.78"
       y1="59.311001"
       y2="41.666"
       gradientUnits="userSpaceOnUse">
      <stop
         stop-color="#b648fe"
         offset="0"
         id="stop7-7" />
      <stop
         stop-color="#02a0fd"
         offset="1"
         id="stop9-5" />
    </linearGradient>
    <linearGradient
       id="linearGradient64678"
       x1="-228.95"
       x2="-189.78"
       y1="23.361"
       y2="41.666"
       gradientUnits="userSpaceOnUse">
      <stop
         stop-color="#96f534"
         offset="0"
         id="stop22" />
      <stop
         stop-color="#0a9cfd"
         offset="1"
         id="stop24" />
    </linearGradient>
    <linearGradient
       id="linearGradient22984"
       x1="-142.07001"
       x2="-124.57"
       y1="-209.74001"
       y2="-209.74001"
       gradientUnits="userSpaceOnUse">
      <stop
         stop-color="#d737ee"
         offset="0"
         id="stop12" />
      <stop
         stop-color="#b548fe"
         offset="1"
         id="stop14-3" />
    </linearGradient>
    <linearGradient
       id="linearGradient88405"
       x1="-200.99001"
       x2="-218.49001"
       y1="-159.57001"
       y2="-159.57001"
       gradientUnits="userSpaceOnUse">
      <stop
         stop-color="#fa533e"
         offset="0"
         id="stop27" />
      <stop
         stop-color="#fde205"
         offset="1"
         id="stop29" />
    </linearGradient>
    <linearGradient
       id="linearGradient108774"
       x1="-233.14"
       x2="-217.94"
       y1="-174.75999"
       y2="-159.57001"
       gradientUnits="userSpaceOnUse">
      <stop
         stop-color="#fbb104"
         offset="0"
         id="stop32" />
      <stop
         stop-color="#fbe106"
         stop-opacity="0"
         offset="1"
         id="stop34" />
    </linearGradient>
    <linearGradient
       id="linearGradient46849"
       x1="-218.49001"
       x2="-183.49001"
       y1="-150.82001"
       y2="-150.82001"
       gradientUnits="userSpaceOnUse">
      <stop
         stop-color="#fde105"
         offset="0"
         id="stop17" />
      <stop
         stop-color="#95f534"
         offset="1"
         id="stop19-5" />
    </linearGradient>
  </defs>
  <path
     class="ColorScheme-Text"
     d="m -11.029586,1.0059 c -0.12781,0 -0.25558,0.04855 -0.35352,0.14648 l -7.0703,7.0723 c -0.19587,0.19587 -0.19587,0.51116 0,0.70703 0.19587,0.19587 0.51116,0.19587 0.70703,0 l 0.7168,-0.7168 v 5.7852 c 0,1.108 0.892,2 2,2 h 7.9999997 c 1.108,0 2,-0.892 2,-2 v -5.7852 l 0.7168,0.7168 c 0.19587,0.19587 0.51116,0.19587 0.70703,0 0.19587,-0.19587 0.19587,-0.51116 0,-0.70703 l -7.0702997,-7.0723 c -0.09793,-0.097934 -0.22571,-0.14648 -0.35352,-0.14648 z m 0,1.209 4.9999997,5 v 6.7852 c 0,0.554 -0.446,1 -1,1 h -2 v -3 c 0,-1.108 -0.892,-2 -1.9999997,-2 -1.108,0 -2,0.892 -2,2 v 3 h -2 c -0.554,0 -1,-0.446 -1,-1 V 7.2149 Z"
     fill="currentColor"
     id="path5" />
  <path
     id="path857"
     style="fill-opacity:1;fill:url(#linearGradient1020)"
     class="ColorScheme-Text"
     d="M 8 1.0058594 C 7.87219 1.0058594 7.7444244 1.0544138 7.6464844 1.1523438 L 0.57617188 8.2246094 C 0.38030188 8.4204794 0.38030188 8.7357706 0.57617188 8.9316406 C 0.77204187 9.1275106 1.0873331 9.1275106 1.2832031 8.9316406 L 2 8.2148438 L 2 14 C 2 15.108 2.892 16 4 16 L 12 16 C 13.108 16 14 15.108 14 14 L 14 8.2148438 L 14.716797 8.9316406 C 14.912667 9.1275106 15.227958 9.1275106 15.423828 8.9316406 C 15.619698 8.7357706 15.619698 8.4204794 15.423828 8.2246094 L 8.3535156 1.1523438 C 8.2555856 1.0544098 8.12781 1.0058594 8 1.0058594 z M 8 2.2148438 L 13 7.2148438 L 13 14 C 13 14.554 12.554 15 12 15 L 10 15 L 10 12 C 10 10.892 9.1079997 10 8 10 C 6.892 10 6 10.892 6 12 L 6 15 L 4 15 C 3.446 15 3 14.554 3 14 L 3 7.2148438 L 8 2.2148438 z " />
</svg>
