<?xml version="1.0" encoding="UTF-8" standalone="no"?>
<svg
   width="16"
   height="16"
   version="1.1"
   viewBox="0 0 16 16"
   id="svg7"
   sodipodi:docname="folder-download.svg"
   inkscape:version="1.1.1 (3bf5ae0d25, 2021-09-20, custom)"
   xmlns:inkscape="http://www.inkscape.org/namespaces/inkscape"
   xmlns:sodipodi="http://sodipodi.sourceforge.net/DTD/sodipodi-0.dtd"
   xmlns:xlink="http://www.w3.org/1999/xlink"
   xmlns="http://www.w3.org/2000/svg"
   xmlns:svg="http://www.w3.org/2000/svg">
  <sodipodi:namedview
     id="namedview9"
     pagecolor="#ffffff"
     bordercolor="#999999"
     borderopacity="1"
     inkscape:pageshadow="0"
     inkscape:pageopacity="0"
     inkscape:pagecheckerboard="0"
     showgrid="false"
     inkscape:zoom="33.101436"
     inkscape:cx="6.9936542"
     inkscape:cy="0.74014915"
     inkscape:window-width="1920"
     inkscape:window-height="936"
     inkscape:window-x="0"
     inkscape:window-y="40"
     inkscape:window-maximized="1"
     inkscape:current-layer="svg7" />
  <defs
     id="defs3">
    <linearGradient
       inkscape:collect="always"
       id="linearGradient858">
      <stop
         style="stop-color:#8235fb;stop-opacity:1"
         offset="0"
         id="stop854" />
      <stop
         style="stop-color:#e404cf;stop-opacity:1"
         offset="1"
         id="stop856" />
    </linearGradient>
    <style
       id="current-color-scheme"
       type="text/css">.ColorScheme-Text { color:#dedede; } .ColorScheme-Text { color:#dedede; }</style>
    <linearGradient
       id="linearGradient1420"
       x1="-86.049004"
       x2="-35.818001"
       y1="-44.457001"
       y2="-44.457001"
       gradientUnits="userSpaceOnUse">
      <stop
         stop-color="#e604cf"
         offset="0"
         id="stop2" />
      <stop
         stop-color="#5905e8"
         offset="1"
         id="stop4" />
    </linearGradient>
    <linearGradient
       id="linearGradient14016"
       x1="-86.049004"
       x2="-35.818001"
       y1="-14.515"
       y2="-14.515"
       gradientUnits="userSpaceOnUse">
      <stop
         stop-color="#4518f6"
         offset="0"
         id="stop7" />
      <stop
         stop-color="#15e6f2"
         offset="1"
         id="stop9" />
    </linearGradient>
    <linearGradient
       inkscape:collect="always"
       xlink:href="#linearGradient858"
       id="linearGradient860"
       x1="8"
       y1="0.64842319"
       x2="8"
       y2="14.892411"
       gradientUnits="userSpaceOnUse" />
  </defs>
  <path
     d="m -12.37719,0 a 7.5,7.5 0 0 0 -7.5,7.5 7.5,7.5 0 0 0 7.5,7.5 A 7.5,7.5 0 0 0 -4.8771904,7.5 7.5,7.5 0 0 0 -12.37719,0 Z m 0,1 a 6.5,6.5 0 0 1 6.4999996,6.5 6.5,6.5 0 0 1 -6.4999996,6.5 6.5,6.5 0 0 1 -6.5,-6.5 6.5,6.5 0 0 1 6.5,-6.5 z m 0,3 c -0.277,0 -0.5,0.223 -0.5,0.5 v 4.793 l -1.2676,-1.2676 c -0.19587,-0.19587 -0.51116,-0.19587 -0.70703,0 -0.19587,0.19587 -0.19587,0.51116 0,0.70703 l 2.1211,2.1211 c 0.04701,0.04701 0.10324,0.08408 0.16602,0.10938 0.12034,0.04897 0.25466,0.04897 0.375,0 0.06278,-0.0253 0.119,-0.06236 0.16602,-0.10938 l 2.1210996,-2.1211 c 0.19587,-0.19587 0.19587,-0.51116 0,-0.70703 -0.1958696,-0.19587 -0.5111596,-0.19587 -0.7070296,0 l -1.2676,1.2676 V 4.5 c 0,-0.277 -0.223,-0.5 -0.5,-0.5 z"
     style="fill:currentColor"
     class="ColorScheme-Text"
     id="path5" />
  <path
     d="m 8.0000002,0.5 a 7.5,7.5 0 0 0 -7.5,7.5 7.5,7.5 0 0 0 7.5,7.5 A 7.5,7.5 0 0 0 15.5,8 7.5,7.5 0 0 0 8.0000002,0.5 Z m 0,1 A 6.5,6.5 0 0 1 14.5,8 a 6.5,6.5 0 0 1 -6.4999998,6.5 6.5,6.5 0 0 1 -6.5,-6.5 6.5,6.5 0 0 1 6.5,-6.5 z m 0,3 c -0.277,0 -0.5,0.223 -0.5,0.5 v 4.793 l -1.2676,-1.2676 c -0.19587,-0.19587 -0.51116,-0.19587 -0.70703,0 -0.19587,0.19587 -0.19587,0.51116 0,0.70703 l 2.1211,2.1211 c 0.04701,0.04701 0.10324,0.08408 0.16602,0.10938 0.12034,0.04897 0.25466,0.04897 0.375,0 0.06278,-0.0253 0.119,-0.06236 0.16602,-0.10938 L 10.47461,9.23243 c 0.19587,-0.19587 0.19587,-0.51116 0,-0.70703 -0.19587,-0.19587 -0.5111598,-0.19587 -0.7070298,0 l -1.2676,1.2676 V 5 c 0,-0.277 -0.223,-0.5 -0.5,-0.5 z"
     style="fill:url(#linearGradient860);fill-opacity:1"
     class="ColorScheme-Text"
     id="path826" />
</svg>
