<?xml version="1.0" encoding="UTF-8" standalone="no"?>
<svg
   width="16"
   height="16"
   version="1.1"
   id="svg7"
   sodipodi:docname="user-trash-full.svg"
   inkscape:version="1.1.1 (3bf5ae0d25, 2021-09-20, custom)"
   xmlns:inkscape="http://www.inkscape.org/namespaces/inkscape"
   xmlns:sodipodi="http://sodipodi.sourceforge.net/DTD/sodipodi-0.dtd"
   xmlns:xlink="http://www.w3.org/1999/xlink"
   xmlns="http://www.w3.org/2000/svg"
   xmlns:svg="http://www.w3.org/2000/svg">
  <sodipodi:namedview
     id="namedview9"
     pagecolor="#ffffff"
     bordercolor="#999999"
     borderopacity="1"
     inkscape:pageshadow="0"
     inkscape:pageopacity="0"
     inkscape:pagecheckerboard="0"
     showgrid="false"
     inkscape:zoom="8.2753591"
     inkscape:cx="-3.0814373"
     inkscape:cy="-19.878292"
     inkscape:window-width="1920"
     inkscape:window-height="936"
     inkscape:window-x="0"
     inkscape:window-y="40"
     inkscape:window-maximized="1"
     inkscape:current-layer="svg7" />
  <defs
     id="defs3">
    <linearGradient
       inkscape:collect="always"
       id="linearGradient967">
      <stop
         style="stop-color:#ff3393;stop-opacity:1"
         offset="0"
         id="stop963" />
      <stop
         style="stop-color:#ff5841;stop-opacity:1"
         offset="1"
         id="stop965" />
    </linearGradient>
    <style
       id="current-color-scheme"
       type="text/css">.ColorScheme-Text { color:#dedede; }</style>
    <radialGradient
       id="radialGradient69412"
       cx="4.1195998"
       cy="12.989"
       r="2.8225999"
       gradientTransform="matrix(1.2927,0,0,1.4406,-1.2059,-5.7232)"
       gradientUnits="userSpaceOnUse">
      <stop
         stop-color="#3bff78"
         offset="0"
         id="stop83" />
      <stop
         stop-color="#1ef2e8"
         offset="1"
         id="stop85" />
    </radialGradient>
    <linearGradient
       id="linearGradient30982"
       x1="4.3758001"
       x2="7.6971002"
       y1="6.7083001"
       y2="10.539"
       gradientUnits="userSpaceOnUse">
      <stop
         stop-color="#db59ff"
         offset="0"
         id="stop73" />
      <stop
         stop-color="#676fff"
         offset="1"
         id="stop75" />
    </linearGradient>
    <linearGradient
       id="linearGradient43362"
       x1="-9.7058001"
       x2="-12.79"
       y1="6.9843001"
       y2="10.174"
       gradientUnits="userSpaceOnUse">
      <stop
         stop-color="#2795ff"
         offset="0"
         id="stop78" />
      <stop
         stop-color="#0adbff"
         offset="1"
         id="stop80" />
    </linearGradient>
    <linearGradient
       id="linearGradient1279"
       x1="3.7853999"
       x2="7.7603998"
       y1="1.9936"
       y2="5.0156002"
       gradientUnits="userSpaceOnUse">
      <stop
         stop-color="#ff5841"
         offset="0"
         id="stop63" />
      <stop
         stop-color="#ff3393"
         offset="1"
         id="stop65" />
    </linearGradient>
    <linearGradient
       id="linearGradient15078"
       x1="9.2938995"
       x2="12.997"
       y1="0.65368998"
       y2="4.8322001"
       gradientUnits="userSpaceOnUse">
      <stop
         stop-color="#ff753f"
         offset="0"
         id="stop68" />
      <stop
         stop-color="#ffc547"
         offset="1"
         id="stop70" />
    </linearGradient>
    <linearGradient
       inkscape:collect="always"
       xlink:href="#linearGradient967"
       id="linearGradient969"
       x1="6.50002"
       y1="1"
       x2="6.50002"
       y2="15.159996"
       gradientUnits="userSpaceOnUse" />
  </defs>
  <path
     d="m -11.778906,0 c -0.554,0 -1,0.446 -1,1 v 1 h -4.5 c -0.277,0 -0.5,0.223 -0.5,0.5 0,0.277 0.223,0.5 0.5,0.5 h 0.49805 l 0.54688,11.061 c 0.0612,1.0155 0.9062,1.9395 1.998,1.9395 h 7.9141 c 1.0919,0 1.9368,-0.92386 1.998,-1.9395 L -3.776996,3 h 0.49805 c 0.277,0 0.5,-0.223 0.5,-0.5 0,-0.277 -0.223,-0.5 -0.5,-0.5 h -4.5 V 1 c 0,-0.554 -0.446,-1 -1,-1 h -3 z m 0,1 h 3 v 1 h -3 z m -1.5,4 c 0.277,0 0.5,0.223 0.5,0.5 v 7 c 0,0.277 -0.223,0.5 -0.5,0.5 -0.277,0 -0.5,-0.223 -0.5,-0.5 v -7 c 0,-0.277 0.223,-0.5 0.5,-0.5 z m 3,0 c 0.277,0 0.5,0.223 0.5,0.5 v 7 c 0,0.277 -0.223,0.5 -0.5,0.5 -0.277,0 -0.5,-0.223 -0.5,-0.5 v -7 c 0,-0.277 0.223,-0.5 0.5,-0.5 z m 3,0 c 0.277,0 0.5,0.223 0.5,0.5 v 7 c 0,0.277 -0.223,0.5 -0.5,0.5 -0.277,0 -0.5,-0.223 -0.5,-0.5 v -7 c 0,-0.277 0.223,-0.5 0.5,-0.5 z"
     style="fill:currentColor"
     class="ColorScheme-Text"
     id="path5" />
  <path
     d="m 6.50002,0 c -0.554,0 -1,0.446 -1,1 v 1 h -4.5 c -0.277,0 -0.5,0.223 -0.5,0.5 0,0.277 0.223,0.5 0.5,0.5 h 0.49805 l 0.54688,11.061 c 0.0612,1.0155 0.9062,1.9395 1.998,1.9395 h 7.9141 c 1.0919,0 1.9368,-0.92386 1.998,-1.9395 L 14.50193,3 h 0.49805 c 0.277,0 0.5,-0.223 0.5,-0.5 0,-0.277 -0.223,-0.5 -0.5,-0.5 h -4.5 V 1 c 0,-0.554 -0.446,-1 -1,-1 h -3 z m 0,1 h 3 v 1 h -3 z m -1.5,4 c 0.277,0 0.5,0.223 0.5,0.5 v 7 c 0,0.277 -0.223,0.5 -0.5,0.5 -0.277,0 -0.5,-0.223 -0.5,-0.5 v -7 c 0,-0.277 0.223,-0.5 0.5,-0.5 z m 3,0 c 0.277,0 0.5,0.223 0.5,0.5 v 7 c 0,0.277 -0.223,0.5 -0.5,0.5 -0.277,0 -0.5,-0.223 -0.5,-0.5 v -7 c 0,-0.277 0.223,-0.5 0.5,-0.5 z m 3,0 c 0.277,0 0.5,0.223 0.5,0.5 v 7 c 0,0.277 -0.223,0.5 -0.5,0.5 -0.277,0 -0.5,-0.223 -0.5,-0.5 v -7 c 0,-0.277 0.223,-0.5 0.5,-0.5 z"
     style="fill:url(#linearGradient969);fill-opacity:1"
     class="ColorScheme-Text"
     id="path961" />
</svg>
