<?xml version="1.0" encoding="UTF-8" standalone="no"?>
<svg
   width="16"
   height="16"
   version="1.1"
   viewBox="0 0 16 16"
   id="svg7"
   sodipodi:docname="user-trash.svg"
   inkscape:version="1.1.1 (3bf5ae0d25, 2021-09-20, custom)"
   xmlns:inkscape="http://www.inkscape.org/namespaces/inkscape"
   xmlns:sodipodi="http://sodipodi.sourceforge.net/DTD/sodipodi-0.dtd"
   xmlns:xlink="http://www.w3.org/1999/xlink"
   xmlns="http://www.w3.org/2000/svg"
   xmlns:svg="http://www.w3.org/2000/svg">
  <sodipodi:namedview
     id="namedview9"
     pagecolor="#ffffff"
     bordercolor="#999999"
     borderopacity="1"
     inkscape:pageshadow="0"
     inkscape:pageopacity="0"
     inkscape:pagecheckerboard="0"
     showgrid="false"
     inkscape:zoom="11.703125"
     inkscape:cx="-2.9479306"
     inkscape:cy="0.811749"
     inkscape:window-width="1920"
     inkscape:window-height="936"
     inkscape:window-x="0"
     inkscape:window-y="40"
     inkscape:window-maximized="1"
     inkscape:current-layer="svg7" />
  <defs
     id="defs3">
    <linearGradient
       inkscape:collect="always"
       id="linearGradient848">
      <stop
         style="stop-color:#ff3393;stop-opacity:1"
         offset="0"
         id="stop844" />
      <stop
         style="stop-color:#ff5841;stop-opacity:1"
         offset="1"
         id="stop846" />
    </linearGradient>
    <style
       id="current-color-scheme"
       type="text/css">.ColorScheme-Text { color:#dedede; }</style>
    <linearGradient
       inkscape:collect="always"
       xlink:href="#linearGradient848"
       id="linearGradient850"
       x1="6.5000205"
       y1="1"
       x2="6.5000205"
       y2="14.906041"
       gradientUnits="userSpaceOnUse" />
  </defs>
  <path
     d="m -12.135198,0 c -0.554,0 -1,0.446 -1,1 v 1 h -4.5 c -0.277,0 -0.5,0.223 -0.5,0.5 0,0.277 0.223,0.5 0.5,0.5 h 0.49805 l 0.54688,11.061 c 0.0612,1.0155 0.90615,1.9395 1.998,1.9395 h 7.9140995 c 1.0919,0 1.9368,-0.92391 1.998,-1.9395 L -4.1332885,3 h 0.49805 c 0.277,0 0.5,-0.223 0.5,-0.5 0,-0.277 -0.223,-0.5 -0.5,-0.5 h -4.5 V 1 c 0,-0.554 -0.446,-1 -1,-1 h -2.9999995 z m 0,1 h 2.9999995 v 1 h -2.9999995 z m -4,2 h 10.9999995 l -0.54297,11 c -0.03333,0.553 -0.446,1 -1,1 h -7.9140995 c -0.554,0 -0.96667,-0.447 -1,-1 l -0.54297,-11 z m 2.5,2 c -0.277,0 -0.5,0.223 -0.5,0.5 v 7 c 0,0.277 0.223,0.5 0.5,0.5 0.277,0 0.5,-0.223 0.5,-0.5 v -7 c 0,-0.277 -0.223,-0.5 -0.5,-0.5 z m 3,0 c -0.277,0 -0.5,0.223 -0.5,0.5 v 7 c 0,0.277 0.223,0.5 0.5,0.5 0.277,0 0.5,-0.223 0.5,-0.5 v -7 c 0,-0.277 -0.223,-0.5 -0.5,-0.5 z m 2.9999995,0 c -0.277,0 -0.5,0.223 -0.5,0.5 v 7 c 0,0.277 0.223,0.5 0.5,0.5 0.277,0 0.5,-0.223 0.5,-0.5 v -7 c 0,-0.277 -0.223,-0.5 -0.5,-0.5 z"
     style="fill:currentColor"
     class="ColorScheme-Text"
     id="path5" />
  <path
     d="m 6.5000203,0 c -0.5540001,0 -1,0.446 -1,1 V 2 H 1.0000202 C 0.72302025,2 0.50002025,2.223 0.50002025,2.5 c 0,0.277 0.223,0.5 0.49999995,0.5 h 0.49805 l 0.54688,11.061 c 0.0612,1.0155 0.90615,1.9395 1.998,1.9395 H 11.95705 c 1.0919,0 1.9368,-0.92391 1.998,-1.9395 L 14.50193,3 h 0.49805 c 0.277,0 0.5,-0.223 0.5,-0.5 0,-0.277 -0.223,-0.5 -0.5,-0.5 h -4.5 V 1 c 0,-0.554 -0.446,-1 -1.0000002,-1 H 6.4999803 Z m 0,1 H 9.5000198 V 2 H 6.5000203 Z M 2.5000202,3 H 13.50002 l -0.54297,11 c -0.03333,0.553 -0.446,1 -1,1 H 4.0429502 c -0.554,0 -0.96667,-0.447 -1,-1 L 2.4999802,3 Z m 2.5,2 c -0.277,0 -0.5,0.223 -0.5,0.5 v 7 c 0,0.277 0.223,0.5 0.5,0.5 0.277,0 0.5,-0.223 0.5,-0.5 v -7 c 0,-0.277 -0.223,-0.5 -0.5,-0.5 z m 3,0 c -0.277,0 -0.5,0.223 -0.5,0.5 v 7 c 0,0.277 0.223,0.5 0.5,0.5 0.277,0 0.5,-0.223 0.5,-0.5 v -7 c 0,-0.277 -0.223,-0.5 -0.5,-0.5 z M 11.00002,5 c -0.277,0 -0.5,0.223 -0.5,0.5 v 7 c 0,0.277 0.223,0.5 0.5,0.5 0.277,0 0.5,-0.223 0.5,-0.5 v -7 c 0,-0.277 -0.223,-0.5 -0.5,-0.5 z"
     style="fill:url(#linearGradient850);fill-opacity:1"
     class="ColorScheme-Text"
     id="path842" />
</svg>
