<?xml version="1.0" encoding="iso-8859-1"?>
<!-- Uploaded to: SVG Repo, www.svgrepo.com, Generator: SVG Repo Mixer Tools -->
<svg fill="#fffff0" height="800px" width="800px" version="1.1" id="Layer_1" xmlns="http://www.w3.org/2000/svg" xmlns:xlink="http://www.w3.org/1999/xlink" 
	 viewBox="0 0 455 455" xml:space="preserve">
<path d="M455,242.5v-30h-59.173c-3.124-35.351-17.174-67.607-38.75-93.364l41.897-41.896l-21.213-21.213l-41.897,41.896
	c-25.757-21.576-58.013-35.625-93.364-38.75V0h-30v59.173c-35.351,3.124-67.607,17.174-93.364,38.75L77.239,56.027L56.026,77.24
	l41.897,41.896c-21.575,25.756-35.625,58.013-38.75,93.364H0v30h59.173c3.124,35.351,17.174,67.607,38.75,93.364L56.026,377.76
	l21.213,21.213l41.897-41.896c25.757,21.576,58.013,35.625,93.364,38.75V455h30v-59.173c35.351-3.124,67.607-17.174,93.364-38.75
	l41.897,41.896l21.213-21.213l-41.897-41.896c21.575-25.756,35.625-58.013,38.75-93.364H455z M88.5,227.5
	c0-71.577,54.384-130.684,124-138.188v276.377C142.884,358.184,88.5,299.077,88.5,227.5z"/>
</svg>
