<?xml version="1.0" encoding="UTF-8"?>
<svg version="1.1" viewBox="0 0 22 22" xmlns="http://www.w3.org/2000/svg">
 <defs>
  <style id="current-color-scheme" type="text/css">.ColorScheme-Text {
        color:#dedede;
      }</style>
 </defs>
 <path class="ColorScheme-Text" d="m-19.771 2c-1.108 0-2 0.892-2 2v16l6-3 6 3v-16c0-1.108-0.892-2-2-2zm0.88867 2.1113h6.2227c0.49244 0 0.88867 0.39623 0.88867 0.88867v12l-4-2-4 2v-12c0-0.49244 0.39623-0.88867 0.88867-0.88867z" fill="currentColor"/>
 <g transform="matrix(1.1063 0 0 1.1063 -57.309 4.3183)">
  <path d="m60.585 10.028s-0.30182 0.97433 0.4755 1.421 1.3933-0.01983 1.6072-0.20755c0.2139-0.18772 6.975-7.0666 7.3169-7.5418 0.34189-0.4752 0.97023-1.819 0.23444-3.6318-0.73579-1.8129-2.9478-2.4653-4.2688-2.0355-1.321 0.42979-2.4258 1.0199-3.0559 3.4641-0.63006 2.4442-2.3094 8.5316-2.3094 8.5316z" fill="#70011d"/>
  <path d="m67.058 2.8857s0.9945-0.22667 0.99184-1.1232c-0.0027-0.89649-0.7149-1.1961-0.9845-1.2872-0.2696-0.091138-9.6096-2.4987-10.192-2.5566-0.58253-0.057963-2.0603 0.071071-3.261 1.6158-1.2007 1.5447-0.65772 3.7861 0.3758 4.7143 1.0335 0.92817 2.0976 1.589 4.5288 0.9104 2.4311-0.6786 8.5412-2.2734 8.5412-2.2734z" fill="#ce0100"/>
  <path d="m57.616 0.83863s-0.69594-0.74571-1.4695-0.29269c-0.77359 0.45305-0.67451 1.2193-0.61775 1.4982 0.05676 0.27887 2.6714 9.563 2.9142 10.096 0.24277 0.5327 1.0973 1.7453 3.0362 2.0066 1.939 0.2613 3.6035-1.335 3.8862-2.695s0.31898-2.6121-1.4899-4.3725c-1.8089-1.7604-6.2594-6.2402-6.2594-6.2402z" fill="#ff0b4c"/>
  <path d="m61.958 4.9979c-0.65646 2.4208-1.3742 5.0295-1.3742 5.0295s-0.30075 0.97524 0.47656 1.4219 1.3935-0.02127 1.6074-0.20898c0.08199-0.07196 1.2698-1.2744 2.5456-2.5751-0.25088-0.50845-0.68902-1.0205-1.3086-1.6235-0.49928-0.48589-1.1941-1.2949-1.9468-2.0438z" fill="#70011d"/>
 </g>
</svg>
