<?xml version="1.0" encoding="UTF-8" standalone="no"?>
<svg
   version="1.1"
   viewBox="0 0 16 16"
   id="svg7"
   sodipodi:docname="folder-open-recent.svg"
   inkscape:version="1.1.1 (3bf5ae0d25, 2021-09-20, custom)"
   xmlns:inkscape="http://www.inkscape.org/namespaces/inkscape"
   xmlns:sodipodi="http://sodipodi.sourceforge.net/DTD/sodipodi-0.dtd"
   xmlns:xlink="http://www.w3.org/1999/xlink"
   xmlns="http://www.w3.org/2000/svg"
   xmlns:svg="http://www.w3.org/2000/svg">
  <defs
     id="defs11">
    <linearGradient
       inkscape:collect="always"
       id="linearGradient898">
      <stop
         style="stop-color:#fe45f0;stop-opacity:1"
         offset="0"
         id="stop894" />
      <stop
         style="stop-color:#ff7e78;stop-opacity:1"
         offset="1"
         id="stop896" />
    </linearGradient>
    <linearGradient
       id="linearGradient15046"
       x1="-47.785999"
       x2="-47.785999"
       y1="-11.66"
       y2="42.941002"
       gradientUnits="userSpaceOnUse">
      <stop
         stop-color="#fe44f1"
         offset="0"
         id="stop26" />
      <stop
         stop-color="#ff7e78"
         offset="1"
         id="stop28" />
    </linearGradient>
    <linearGradient
       id="linearGradient10484"
       x1="-73.065002"
       x2="-73.065002"
       y1="-9.9712"
       y2="19.934"
       gradientUnits="userSpaceOnUse">
      <stop
         stop-color="#13cbd9"
         offset="0"
         id="stop21" />
      <stop
         stop-color="#2bd4a3"
         offset="1"
         id="stop23" />
    </linearGradient>
    <linearGradient
       id="linearGradient1797"
       x1="-54.373001"
       x2="-54.373001"
       y1="-17.955"
       y2="6.7498999"
       gradientUnits="userSpaceOnUse">
      <stop
         stop-color="#7222ff"
         offset="0"
         id="stop16" />
      <stop
         stop-color="#861ce2"
         offset="1"
         id="stop18" />
    </linearGradient>
    <linearGradient
       inkscape:collect="always"
       xlink:href="#linearGradient898"
       id="linearGradient900"
       x1="0"
       y1="8.5"
       x2="16"
       y2="8.5"
       gradientUnits="userSpaceOnUse" />
  </defs>
  <sodipodi:namedview
     id="namedview9"
     pagecolor="#ffffff"
     bordercolor="#999999"
     borderopacity="1"
     inkscape:pageshadow="0"
     inkscape:pageopacity="0"
     inkscape:pagecheckerboard="0"
     showgrid="false"
     inkscape:zoom="5.8515625"
     inkscape:cx="10.339119"
     inkscape:cy="-19.567423"
     inkscape:window-width="1920"
     inkscape:window-height="936"
     inkscape:window-x="0"
     inkscape:window-y="40"
     inkscape:window-maximized="1"
     inkscape:current-layer="svg7" />
  <style
     id="current-color-scheme"
     type="text/css">.ColorScheme-Text {
            color:#dedede;
        }</style>
  <path
     class="ColorScheme-Text"
     d="m -18.105229,2 c -1.108,0 -2,0.892 -2,2 v 9 c 0,1.108 0.892,2 2,2 h 7.6777 a 4.5,4.5 0 0 1 -0.91602,-1 h -6.7617 c -0.554,0 -1,-0.446 -1,-1 V 7 h 14.0000002 v 0.75977 a 4.5,4.5 0 0 1 1,0.91406 v -3.6738 c 0,-1.108 -0.892,-2 -2,-2 h -7.6289002 c -0.57985,-0.0229 -0.6047,0.076884 -1.0391,-0.35742 -0.43381,-0.43381 -0.613,-0.64213 -1.332,-0.64258 h -2 z m 0,1 h 2 c 0.31116,-1.7e-6 0.52033,1.414e-4 0.99805,0.4707 0.47877,0.47161 0.6388,0.5293 1,0.5293 h 8.0020002 c 0.554,0 1,0.446 1,1 V 6 H -19.105179 V 4 c 0,-0.554 0.446,-1 1,-1 z"
     fill="currentColor"
     id="path3" />
  <path
     d="m -7.6052288,8 c -1.933,0 -3.5000002,1.567 -3.5000002,3.5 0,1.933 1.5670002,3.5 3.5000002,3.5 1.933,0 3.5,-1.567 3.5,-3.5 0,-1.933 -1.567,-3.5 -3.5,-3.5 z m -1,1 c 0.277,0 0.5,0.223 0.5,0.5 V 12 h 1.5 c 0.277,0 0.5,0.223 0.5,0.5 0,0.277 -0.223,0.5 -0.5,0.5 h -2 c -0.277,0 -0.5,-0.223 -0.5,-0.5 v -3 c 0,-0.277 0.223,-0.5 0.5,-0.5 z"
     class="ColorScheme-Text"
     fill="currentColor"
     id="path5" />
  <path
     id="path865"
     class="ColorScheme-Text"
     d="M 2 2 C 0.892 2 0 2.892 0 4 L 0 13 C 0 14.108 0.892 15 2 15 L 9.6777344 15 A 4.5 4.5 0 0 1 8.7617188 14 L 2 14 C 1.446 14 1 13.554 1 13 L 1 7 L 15 7 L 15 7.7597656 A 4.5 4.5 0 0 1 16 8.6738281 L 16 5 C 16 3.892 15.108 3 14 3 L 6.3710938 3 C 5.7912437 2.9771 5.7664313 3.0768821 5.3320312 2.6425781 C 4.8982212 2.2087681 4.719 2.00045 4 2 L 2 2 z M 2 3 L 4 3 C 4.31116 2.9999983 4.5203269 3.0001445 4.9980469 3.4707031 C 5.4768169 3.9423131 5.6368469 4 5.9980469 4 L 14 4 C 14.554 4 15 4.446 15 5 L 15 6 L 1 6 L 1 4 C 1 3.446 1.446 3 2 3 z M 12.5 8 C 10.567 8 9 9.567 9 11.5 C 9 13.433 10.567 15 12.5 15 C 14.433 15 16 13.433 16 11.5 C 16 9.567 14.433 8 12.5 8 z M 11.5 9 C 11.777 9 12 9.223 12 9.5 L 12 12 L 13.5 12 C 13.777 12 14 12.223 14 12.5 C 14 12.777 13.777 13 13.5 13 L 11.5 13 C 11.223 13 11 12.777 11 12.5 L 11 9.5 C 11 9.223 11.223 9 11.5 9 z "
     style="fill:url(#linearGradient900);fill-opacity:1" />
</svg>
